#!OML:ASF X:\für Bonn\!DataBase\2005_08_10_Bjorn_Final\c3d\bjorn.ASF
:FULLY-SPECIFIED
:DEGREES
227
root -17.941 18.7792 5.43008 -1447.79 54.6938 -19.8882
lowerback -2.78766 -5.92744 5.8765
upperback 7.71818 -8.50186 2.36511
thorax 9.2735 -3.78 -1.59811
lowerneck -2.17879 8.98025 2.53874
upperneck 1.48429 12.0254 -5.30815
head 1.34185 5.95967 -1.82414
rclavicle 2.26615e-014 -2.22639e-014
rhumerus -59.3945 4.41536 -86.4958
rradius 72.6591
rwrist 3.74346
rhand -33.7024 35.0157
rfingers 7.12502
rthumb -6.89232 5.14788
lclavicle 2.26615e-014 -2.22639e-014
lhumerus -26.4192 -37.5812 95.2825
lradius 100.631
lwrist -4.02921
lhand -44.7702 -24.536
lfingers 7.12502
lthumb -17.5625 4.69076
rfemur -38.9198 -5.97566 19.2046
rtibia 36.3791
rfoot 1.5878 16.4801
rtoes -20.5523
lfemur 12.3874 -2.96455 -20.2959
ltibia 28.9741
lfoot 10.4498 -6.56227
ltoes -1.83201
228
root -17.694 18.7574 5.61853 -1447.78 55.2538 -19.8355
lowerback -3.04116 -5.9434 5.86716
upperback 7.64857 -8.54581 2.40529
thorax 9.35148 -3.80082 -1.58071
lowerneck -1.80799 8.98351 2.31005
upperneck 1.1559 12.0278 -5.36014
head 1.16191 5.96934 -1.82934
rclavicle 6.12257e-014 -1.82882e-014
rhumerus -58.9304 4.28666 -86.4279
rradius 72.7694
rwrist 3.31605
rhand -34.178 35.401
rfingers 7.12502
rthumb -7.35142 5.54876
lclavicle 6.12257e-014 -1.82882e-014
lhumerus -26.9101 -38.085 95.7271
lradius 100.047
lwrist -4.08836
lhand -44.6029 -25.5699
lfingers 7.12502
lthumb -17.4015 3.67116
rfemur -38.289 -5.52478 18.8756
rtibia 35.753
rfoot 1.60295 16.5946
rtoes -20.4086
lfemur 11.87 -3.639 -20.5997
ltibia 31.3518
lfoot 9.74376 -3.68931
ltoes -3.13857
229
root -17.4491 18.7216 5.80583 -1447.82 55.7419 -19.7024
lowerback -3.15747 -5.92255 5.80432
upperback 7.63532 -8.52346 2.41602
thorax 9.41717 -3.79175 -1.547
lowerneck -1.5614 8.97956 2.03966
upperneck 0.746996 12.0129 -5.3138
head 0.968251 5.97118 -1.79405
rclavicle -4.45278e-014 3.49861e-014
rhumerus -58.3133 4.11507 -86.3826
rradius 72.7867
rwrist 3.16137
rhand -34.8539 35.7562
rfingers 7.12502
rthumb -8.00378 5.92779
lclavicle -4.45278e-014 3.49861e-014
lhumerus -27.398 -38.5145 96.1919
lradius 99.3135
lwrist -4.29704
lhand -44.5347 -26.6749
lfingers 7.12502
lthumb -17.3359 2.57192
rfemur -37.561 -5.09237 18.5324
rtibia 35.5561
rfoot 1.44112 16.3331
rtoes -18.7256
lfemur 11.3744 -4.34288 -20.9953
ltibia 33.867
lfoot 8.74386 -0.676863
ltoes -3.26731
230
root -17.2061 18.6779 5.99097 -1448.21 56.1359 -19.8114
lowerback -3.07571 -5.86733 5.8701
upperback 7.68383 -8.44998 2.45675
thorax 9.42484 -3.75053 -1.5258
lowerneck -1.4741 8.97952 1.77512
upperneck 0.322345 12.0009 -5.25434
head 0.797466 5.97314 -1.74876
rclavicle -2.31783e-013 1.08139e-013
rhumerus -57.571 3.97629 -86.3695
rradius 72.7759
rwrist 3.05683
rhand -35.5834 36.0107
rfingers 7.12502
rthumb -8.70775 6.21033
lclavicle -2.31783e-013 1.08139e-013
lhumerus -27.8001 -38.8908 96.5988
lradius 98.5195
lwrist -4.44314
lhand -44.3704 -27.2884
lfingers 7.12502
lthumb -17.1778 1.97234
rfemur -36.6915 -4.75309 18.4242
rtibia 35.6629
rfoot 0.887303 16.1231
rtoes -17.4749
lfemur 10.9279 -4.98968 -21.2461
ltibia 36.487
lfoot 7.38701 2.48523
ltoes -3.33708
231
root -16.9637 18.6229 6.17414 -1449.04 56.453 -20.2715
lowerback -2.81208 -5.7967 6.08957
upperback 7.78993 -8.35652 2.57673
thorax 9.38304 -3.6919 -1.48401
lowerneck -1.55139 8.99064 1.40926
upperneck -0.0691566 12.0061 -5.14289
head 0.656134 5.98183 -1.66237
rclavicle -1.39149e-014 2.78299e-014
rhumerus -56.7831 3.90331 -86.3045
rradius 72.8727
rwrist 2.84878
rhand -36.1545 36.1538
rfingers 7.12502
rthumb -9.25888 6.37708
lclavicle -1.39149e-014 2.78299e-014
lhumerus -28.2191 -39.1449 97.0853
lradius 97.7279
lwrist -4.57239
lhand -44.0865 -27.0256
lfingers 7.12502
lthumb -16.9044 2.25867
rfemur -35.6583 -4.51225 18.5572
rtibia 36.0851
rfoot -0.102029 16.3073
rtoes -17.3934
lfemur 10.5013 -5.53942 -21.2493
ltibia 39.3057
lfoot 6.11874 5.21286
ltoes -3.61679
232
root -16.7208 18.5653 6.35501 -1450.03 56.6986 -20.7763
lowerback -2.41627 -5.69904 6.34199
upperback 7.95924 -8.21568 2.6871
thorax 9.3311 -3.60603 -1.45485
lowerneck -1.65793 8.99504 1.05898
upperneck -0.529495 12.0012 -5.05833
head 0.501591 5.98705 -1.58834
rclavicle 1.74931e-014 -7.95139e-015
rhumerus -55.899 3.84994 -86.3066
rradius 72.9833
rwrist 2.53496
rhand -36.6013 36.3077
rfingers 7.12502
rthumb -9.68996 6.55058
lclavicle 1.74931e-014 -7.95139e-015
lhumerus -28.6517 -39.3002 97.6142
lradius 96.9829
lwrist -4.71353
lhand -43.8565 -26.5693
lfingers 7.12502
lthumb -16.683 2.73379
rfemur -34.4694 -4.14319 18.6481
rtibia 36.8106
rfoot -1.3307 16.5166
rtoes -16.0431
lfemur 10.0785 -5.88239 -21.1518
ltibia 42.2779
lfoot 5.38339 7.12051
ltoes -5.2027
233
root -16.4844 18.4839 6.53395 -1451.01 56.9121 -21.2168
lowerback -2.01298 -5.54446 6.61177
upperback 8.16497 -7.99257 2.72221
thorax 9.3076 -3.47286 -1.50949
lowerneck -1.87644 8.95658 1.02362
upperneck -0.84353 11.9423 -5.15884
head 0.442736 5.96086 -1.61268
rclavicle -2.90226e-014 -1.66979e-014
rhumerus -54.9581 3.75283 -86.4253
rradius 73.12
rwrist 2.20107
rhand -36.7468 36.3263
rfingers 7.12502
rthumb -9.83039 6.57579
lclavicle -2.90226e-014 -1.66979e-014
lhumerus -29.1563 -39.4819 98.1031
lradius 96.3451
lwrist -4.86657
lhand -43.607 -26.1018
lfingers 7.12502
lthumb -16.4428 3.22138
rfemur -33.3534 -3.81261 18.761
rtibia 37.88
rfoot -3.2021 16.7532
rtoes -16.6311
lfemur 9.51242 -5.88237 -20.891
ltibia 45.4202
lfoot 5.09146 8.0455
ltoes -8.49058
234
root -16.2528 18.3948 6.70861 -1451.78 57.1292 -21.4452
lowerback -1.59992 -5.38085 6.73245
upperback 8.37417 -7.74508 2.75921
thorax 9.30387 -3.33801 -1.48209
lowerneck -2.23554 8.89911 1.13332
upperneck -1.01124 11.8638 -5.53846
head 0.480337 5.91947 -1.73547
rclavicle -8.74653e-015 2.54444e-014
rhumerus -53.9242 3.78943 -86.5549
rradius 73.3456
rwrist 1.92574
rhand -36.6916 35.7259
rfingers 7.12502
rthumb -9.77709 5.97287
lclavicle -8.74653e-015 2.54444e-014
lhumerus -29.7081 -39.4828 98.6576
lradius 95.7967
lwrist -5.24524
lhand -43.3256 -25.5829
lfingers 7.12502
lthumb -16.1719 3.76251
rfemur -32.3486 -3.56963 18.8293
rtibia 39.1923
rfoot -5.84321 16.7498
rtoes -20.3506
lfemur 8.78814 -5.67467 -20.6257
ltibia 48.6385
lfoot 4.87661 8.25094
ltoes -12.4977
235
root -16.021 18.3041 6.88013 -1452.66 57.3551 -21.7736
lowerback -1.16836 -5.21262 6.92429
upperback 8.61622 -7.49196 2.78102
thorax 9.31723 -3.19195 -1.50969
lowerneck -2.79237 8.82579 1.37793
upperneck -0.995344 11.7697 -6.01238
head 0.623126 5.86259 -1.89619
rclavicle -8.22969e-014 5.48646e-014
rhumerus -52.8534 3.84562 -86.7705
rradius 73.6704
rwrist 1.83152
rhand -36.5995 34.7217
rfingers 7.12502
rthumb -9.68827 4.96451
lclavicle -8.22969e-014 5.48646e-014
lhumerus -30.2506 -39.3989 99.2128
lradius 95.1171
lwrist -5.34756
lhand -43.1871 -25.7675
lfingers 7.12502
lthumb -16.0386 3.58871
rfemur -31.4174 -3.4461 18.9601
rtibia 40.6649
rfoot -8.42763 16.8538
rtoes -23.1406
lfemur 7.99243 -5.55398 -20.3329
ltibia 51.9199
lfoot 4.41904 8.09364
ltoes -15.8199
236
root -15.7897 18.2103 7.04694 -1453.88 57.5057 -22.3779
lowerback -0.587791 -5.00369 7.29932
upperback 8.87332 -7.1757 2.82796
thorax 9.24985 -3.00335 -1.59312
lowerneck -3.32316 8.70514 1.60915
upperneck -0.942571 11.6125 -6.42309
head 0.766272 5.77288 -2.0399
rclavicle -4.92986e-014 3.02153e-014
rhumerus -51.8435 3.89168 -86.9929
rradius 74.0971
rwrist 1.91229
rhand -36.6069 33.5472
rfingers 7.12502
rthumb -9.69535 3.7903
lclavicle -4.92986e-014 3.02153e-014
lhumerus -30.8908 -39.3182 99.8508
lradius 94.3848
lwrist -5.49504
lhand -43.1985 -26.0135
lfingers 7.12502
lthumb -16.0495 3.34176
rfemur -30.3814 -3.29767 19.2169
rtibia 42.1421
rfoot -10.7737 16.9329
rtoes -24.3416
lfemur 7.2686 -5.38188 -19.8613
ltibia 55.1787
lfoot 3.7168 7.67701
ltoes -18.2896
237
root -15.5608 18.111 7.20871 -1455.34 57.6428 -23.2094
lowerback 0.0407984 -4.76624 7.87093
upperback 9.13609 -6.8168 2.84517
thorax 9.14575 -2.77673 -1.81086
lowerneck -3.93892 8.56505 1.90641
upperneck -0.648625 11.4352 -6.72767
head 0.997098 5.66559 -2.15493
rclavicle 6.36111e-015 -4.13472e-014
rhumerus -50.8327 3.82337 -87.3042
rradius 74.5582
rwrist 1.99028
rhand -36.5747 32.3702
rfingers 7.12502
rthumb -9.66435 2.61187
lclavicle 6.36111e-015 -4.13472e-014
lhumerus -31.6549 -39.2728 100.494
lradius 93.586
lwrist -5.59671
lhand -43.25 -26.457
lfingers 7.12502
lthumb -16.0991 2.8943
rfemur -29.2316 -3.16019 19.5875
rtibia 43.5393
rfoot -13.1168 16.912
rtoes -25.5305
lfemur 6.49379 -5.1769 -19.1895
ltibia 58.4289
lfoot 2.77917 7.21714
ltoes -17.8217
